<?xml version="1.0" encoding="UTF-8"?>
<svg version="1.1" xmlns="http://www.w3.org/2000/svg" width="32" height="32">
<path d="M0 0 C10.56 0 21.12 0 32 0 C32 10.56 32 21.12 32 32 C21.44 32 10.88 32 0 32 C0 21.44 0 10.88 0 0 Z " fill="#F3F3F3" transform="translate(0,0)"/>
<path d="M0 0 C2.31 0 4.62 0 7 0 C7 5.28 7 10.56 7 16 C3.04 16 -0.92 16 -5 16 C-5 12.37 -5 8.74 -5 5 C-3.35 5 -1.7 5 0 5 C0 3.35 0 1.7 0 0 Z " fill="#303030" transform="translate(18,14)"/>
<path d="M0 0 C2.31 0 4.62 0 7 0 C7 5.28 7 10.56 7 16 C5.68 16 4.36 16 3 16 C3 14.02 3 12.04 3 10 C0.36 9.67 -2.28 9.34 -5 9 C-5 7.68 -5 6.36 -5 5 C-3.35 5 -1.7 5 0 5 C0 3.35 0 1.7 0 0 Z " fill="#141414" transform="translate(23,4)"/>
<path d="M0 0 C0 2.31 0 4.62 0 7 C2.31 7 4.62 7 7 7 C6.34 8.65 5.68 10.3 5 12 C-1.25925926 13.44444444 -1.25925926 13.44444444 -4.5 11.5 C-6 9 -6 9 -5.9375 5.375 C-4.92958954 1.74652235 -4.04671923 0 0 0 Z " fill="#0E0E0E" transform="translate(8,2)"/>
<path d="M0 0 C2.4375 0.75 2.4375 0.75 5 2 C5.8125 4.125 5.8125 4.125 6 6 C4.02 6 2.04 6 0 6 C0 4.02 0 2.04 0 0 Z " fill="#0F0F0F" transform="translate(9,2)"/>
<path d="M0 0 C0.99 0 1.98 0 3 0 C3 0.66 3 1.32 3 2 C-3.625 5.125 -3.625 5.125 -7 4 C-6.67 3.01 -6.34 2.02 -6 1 C-4.7934375 1.0309375 -4.7934375 1.0309375 -3.5625 1.0625 C-1.06645115 1.29633621 -1.06645115 1.29633621 0 0 Z " fill="#0E0E0E" transform="translate(9,25)"/>
<path d="M0 0 C6.75 1.875 6.75 1.875 9 3 C9 3.66 9 4.32 9 5 C6.03 4.67 3.06 4.34 0 4 C0 2.68 0 1.36 0 0 Z " fill="#0E0E0E" transform="translate(3,16)"/>
<path d="M0 0 C2.97 0.33 5.94 0.66 9 1 C9 1.66 9 2.32 9 3 C4.545 3.495 4.545 3.495 0 4 C0 2.68 0 1.36 0 0 Z " fill="#070707" transform="translate(3,21)"/>
</svg>
