<?xml version="1.0" encoding="UTF-8"?>
<svg version="1.1" xmlns="http://www.w3.org/2000/svg" width="95" height="95">
<path d="M0 0 C0.84949219 0.4125 1.69898437 0.825 2.57421875 1.25 C14.63064031 7.74902051 21.31315181 18.12040505 25.63671875 30.87890625 C27.39473998 41.14348184 26.70643236 51.67510598 22 61 C21.57589844 61.86109375 21.15179688 62.7221875 20.71484375 63.609375 C14.28142853 75.43682359 3.58160292 82.28564143 -8.9140625 86.671875 C-19.23791801 88.29585227 -29.61560987 87.72914148 -39 83 C-39.84949219 82.5875 -40.69898437 82.175 -41.57421875 81.75 C-53.63064031 75.25097949 -60.31315181 64.87959495 -64.63671875 52.12109375 C-66.39548293 41.85218031 -65.70189643 31.33032572 -61 22 C-60.5875 21.15050781 -60.175 20.30101563 -59.75 19.42578125 C-53.25097949 7.36935969 -42.87959495 0.68684819 -30.12109375 -3.63671875 C-19.85218031 -5.39548293 -9.33032572 -4.70189643 0 0 Z " fill="#412E7A" transform="translate(67,6)"/>
<path d="M0 0 C3.68748309 -0.02925502 7.37493592 -0.04688418 11.0625 -0.0625 C12.10083984 -0.07087891 13.13917969 -0.07925781 14.20898438 -0.08789062 C29.33199269 -0.13590018 29.33199269 -0.13590018 34.25 3.8125 C34.89453125 4.31394531 35.5390625 4.81539062 36.203125 5.33203125 C39.009274 7.93686956 40.82487394 9.73645603 41.36328125 13.62109375 C41.34652344 14.55050781 41.32976562 15.47992188 41.3125 16.4375 C41.30863281 17.36433594 41.30476563 18.29117188 41.30078125 19.24609375 C40.98357128 22.15041884 40.12300945 24.31998941 39 27 C39 27.99 39 28.98 39 30 C37.2984375 30.2165625 37.2984375 30.2165625 35.5625 30.4375 C32.19222799 30.61171478 32.19222799 30.61171478 31 32 C28.66702567 32.04092937 26.33294775 32.04241723 24 32 C24.020625 33.134375 24.04125 34.26875 24.0625 35.4375 C24 39 24 39 23 40 C21.30441274 40.09932153 19.60474253 40.13080007 17.90625 40.1328125 C16.87628906 40.13410156 15.84632812 40.13539062 14.78515625 40.13671875 C13.15900391 40.13091797 13.15900391 40.13091797 11.5 40.125 C10.41589844 40.12886719 9.33179688 40.13273437 8.21484375 40.13671875 C7.18488281 40.13542969 6.15492187 40.13414063 5.09375 40.1328125 C4.14177734 40.13168457 3.18980469 40.13055664 2.20898438 40.12939453 C-0 40 -0 40 -1 39 C-1.10102113 36.28443773 -1.13970277 33.59485462 -1.1328125 30.87890625 C-1.13376923 30.06381088 -1.13472595 29.24871552 -1.13571167 28.40892029 C-1.13639353 26.68138553 -1.13453884 24.95384823 -1.13037109 23.22631836 C-1.12502975 20.57725272 -1.13031232 17.92835716 -1.13671875 15.27929688 C-1.13605783 13.60416629 -1.13477639 11.92903581 -1.1328125 10.25390625 C-1.13483673 9.45803604 -1.13686096 8.66216583 -1.13894653 7.84217834 C-1.11495544 2.22991088 -1.11495544 2.22991088 0 0 Z " fill="#F5E7EE" transform="translate(24,27)"/>
<path d="M0 0 C3.68748309 -0.02925502 7.37493592 -0.04688418 11.0625 -0.0625 C12.10083984 -0.07087891 13.13917969 -0.07925781 14.20898438 -0.08789062 C19.58723069 -0.10496442 24.70333211 0.04584848 30 1 C30 1.33 30 1.66 30 2 C28.80503906 1.98646484 28.80503906 1.98646484 27.5859375 1.97265625 C21.43505955 2.02720012 21.43505955 2.02720012 15.9375 4.4140625 C12.86415564 7.90230835 11.10889003 11.45355089 10 16 C7.69 16 5.38 16 3 16 C3 16.99 3 17.98 3 19 C5.31 19 7.62 19 10 19 C11.76462683 22.08809695 12 23.23312136 12 27 C9.03 27 6.06 27 3 27 C3 27.99 3 28.98 3 30 C3.92941406 29.89300781 4.85882813 29.78601563 5.81640625 29.67578125 C18.09490334 28.48506151 18.09490334 28.48506151 24 32 C24.04241723 34.33294775 24.04092937 36.66702567 24 39 C22.31483046 40.68516954 20.21232212 40.13008019 17.90625 40.1328125 C16.87628906 40.13410156 15.84632812 40.13539062 14.78515625 40.13671875 C13.15900391 40.13091797 13.15900391 40.13091797 11.5 40.125 C10.41589844 40.12886719 9.33179688 40.13273437 8.21484375 40.13671875 C7.18488281 40.13542969 6.15492187 40.13414063 5.09375 40.1328125 C4.14177734 40.13168457 3.18980469 40.13055664 2.20898438 40.12939453 C-0 40 -0 40 -1 39 C-1.10102113 36.28443773 -1.13970277 33.59485462 -1.1328125 30.87890625 C-1.13376923 30.06381088 -1.13472595 29.24871552 -1.13571167 28.40892029 C-1.13639353 26.68138553 -1.13453884 24.95384823 -1.13037109 23.22631836 C-1.12502975 20.57725272 -1.13031232 17.92835716 -1.13671875 15.27929688 C-1.13605783 13.60416629 -1.13477639 11.92903581 -1.1328125 10.25390625 C-1.13483673 9.45803604 -1.13686096 8.66216583 -1.13894653 7.84217834 C-1.11495544 2.22991088 -1.11495544 2.22991088 0 0 Z " fill="#E24C96" transform="translate(24,27)"/>
<path d="M0 0 C3.08193978 1.6281946 5.26420667 3.03009062 7.375 5.8125 C8.25805234 8.90318318 8.12279902 11.8072254 8 15 C6.02 15 4.04 15 2 15 C2 17.31 2 19.62 2 22 C0.68 22.33 -0.64 22.66 -2 23 C-2 17.39 -2 11.78 -2 6 C-2.99 6 -3.98 6 -5 6 C-5.33 11.61 -5.66 17.22 -6 23 C-6.99 22.67 -7.98 22.34 -9 22 C-9 18.7 -9 15.4 -9 12 C-10.32 12 -11.64 12 -13 12 C-13 13.65 -13 15.3 -13 17 C-13.66 16.67 -14.32 16.34 -15 16 C-15.71920089 9.16759156 -15.71920089 9.16759156 -13.734375 5.9453125 C-9.39058714 0.86350244 -6.92507789 -0.57708982 0 0 Z " fill="#F8D946" transform="translate(53,32)"/>
<path d="M0 0 C3.68754983 -0.0270922 7.37489844 -0.04688402 11.0625 -0.0625 C12.10083984 -0.07087891 13.13917969 -0.07925781 14.20898438 -0.08789062 C19.58723069 -0.10496442 24.70333211 0.04584848 30 1 C30 1.33 30 1.66 30 2 C28.80503906 1.98646484 28.80503906 1.98646484 27.5859375 1.97265625 C21.37954339 1.99431702 21.37954339 1.99431702 15.9375 4.5546875 C14.48242587 6.30805183 13.22972879 8.08463106 12 10 C11.34 10.66 10.68 11.32 10 12 C6.61922339 11.96674646 3.36043621 11.43082516 0 11 C0 7.37 0 3.74 0 0 Z " fill="#EF71AA" transform="translate(24,27)"/>
<path d="M0 0 C1.32 0.33 2.64 0.66 4 1 C3.67 6.61 3.34 12.22 3 18 C3.99 17.67 4.98 17.34 6 17 C6.33 14.69 6.66 12.38 7 10 C8.98 10 10.96 10 13 10 C11.82464948 14.40756443 10.9697377 16.66889323 7 19 C1.94646725 19.83597934 -2.59062449 19.65048101 -7.25 17.5 C-9.22990214 14.67156838 -9.19160025 14.03942373 -8.8125 10.75 C-8.544375 9.5125 -8.27625 8.275 -8 7 C-6.68 7 -5.36 7 -4 7 C-3.95101562 7.71027344 -3.90203125 8.42054687 -3.8515625 9.15234375 C-3.77679688 10.07144531 -3.70203125 10.99054687 -3.625 11.9375 C-3.55539063 12.85402344 -3.48578125 13.77054688 -3.4140625 14.71484375 C-3.27742188 15.46894531 -3.14078125 16.22304688 -3 17 C-2.34 17.33 -1.68 17.66 -1 18 C-1.01160156 16.78441406 -1.02320313 15.56882812 -1.03515625 14.31640625 C-1.04453278 12.73177236 -1.05363313 11.14713682 -1.0625 9.5625 C-1.07087891 8.76005859 -1.07925781 7.95761719 -1.08789062 7.13085938 C-1.0965143 5.08704779 -1.0522815 3.04316098 -1 1 C-0.67 0.67 -0.34 0.34 0 0 Z " fill="#B6B5C4" transform="translate(48,37)"/>
<path d="M0 0 C4.90432176 1.05092609 7.77232367 2.96754368 10.875 6.78125 C12.99802915 10.96833526 12.44548405 15.43791335 12 20 C11.67 20 11.34 20 11 20 C11 17.03 11 14.06 11 11 C10.34 11 9.68 11 9 11 C9.02320312 11.62648438 9.04640625 12.25296875 9.0703125 12.8984375 C9.09738281 14.12433594 9.09738281 14.12433594 9.125 15.375 C9.14820312 16.18710937 9.17140625 16.99921875 9.1953125 17.8359375 C9 20 9 20 7 22 C7.01160156 21.25234375 7.02320312 20.5046875 7.03515625 19.734375 C7.04417969 18.74953125 7.05320312 17.7646875 7.0625 16.75 C7.07410156 15.77546875 7.08570312 14.8009375 7.09765625 13.796875 C7.01109863 11.31786477 6.83757884 9.32719692 6 7 C4.0998823 5.75825204 4.0998823 5.75825204 2 5 C1.34 4.67 0.68 4.34 0 4 C-4.55906044 3.47036865 -4.55906044 3.47036865 -8.7578125 5.046875 C-10.93626824 6.83594493 -12.72957812 8.45915625 -14 11 C-14.07033769 12.87379605 -14.0843022 14.75001102 -14.0625 16.625 C-14.05347656 17.62789062 -14.04445312 18.63078125 -14.03515625 19.6640625 C-14.02355469 20.43492188 -14.01195312 21.20578125 -14 22 C-16.55573817 19.44426183 -16.35498461 18.30301573 -16.4375 14.75 C-16.38116908 10.84780388 -16.13945118 8.41607665 -13.625 5.375 C-10.22760318 2.30116478 -8.8242048 1.87393993 -4.375 1.9375 C-3.14910156 1.95103516 -3.14910156 1.95103516 -1.8984375 1.96484375 C-0.95871094 1.98224609 -0.95871094 1.98224609 0 2 C0 1.34 0 0.68 0 0 Z " fill="#D8D7CF" transform="translate(53,29)"/>
<path d="M0 0 C0.33 1.32 0.66 2.64 1 4 C-1.97 4 -4.94 4 -8 4 C-8 4.99 -8 5.98 -8 7 C-7.07058594 6.89300781 -6.14117187 6.78601562 -5.18359375 6.67578125 C7.09490334 5.48506151 7.09490334 5.48506151 13 9 C13 9.33 13 9.66 13 10 C5.08 10 -2.84 10 -11 10 C-11 7.03 -11 4.06 -11 1 C-5.555 0.505 -5.555 0.505 0 0 Z " fill="#EF5B9D" transform="translate(35,50)"/>
<path d="M0 0 C4.15393328 2.60828369 7.88993733 5.13598274 11 9 C10.8125 11.8125 10.8125 11.8125 10 14 C7.875 14.375 7.875 14.375 5 14 C1.39889217 11.30577263 -1.22674216 8.13760164 -3 4 C-3.66 3.34 -4.32 2.68 -5 2 C-2.525 2.495 -2.525 2.495 0 3 C0 2.01 0 1.02 0 0 Z " fill="#32ABDE" transform="translate(63,54)"/>
<path d="M0 0 C3.3 0 6.6 0 10 0 C10 0.99 10 1.98 10 3 C7.69 3 5.38 3 3 3 C3 3.99 3 4.98 3 6 C5.31 6 7.62 6 10 6 C10.33 7.32 10.66 8.64 11 10 C7.37 9.67 3.74 9.34 0 9 C0 6.03 0 3.06 0 0 Z " fill="#EE5A9D" transform="translate(24,40)"/>
<path d="M0 0 C1.32 0.33 2.64 0.66 4 1 C3.67 6.61 3.34 12.22 3 18 C2.01 18 1.02 18 0 18 C0 12.06 0 6.12 0 0 Z " fill="#1DA7D6" transform="translate(48,37)"/>
<path d="M0 0 C1.65 0 3.3 0 5 0 C4.67 3.63 4.34 7.26 4 11 C2.68 11.33 1.36 11.66 0 12 C0 8.04 0 4.08 0 0 Z " fill="#D85F98" transform="translate(51,43)"/>
<path d="M0 0 C0.99 0 1.98 0 3 0 C3 5.28 3 10.56 3 16 C2.01 15.67 1.02 15.34 0 15 C0 10.05 0 5.1 0 0 Z " fill="#EA5192" transform="translate(44,39)"/>
<path d="M0 0 C4.90432176 1.05092609 7.77232367 2.96754368 10.875 6.78125 C12.99802915 10.96833526 12.44548405 15.43791335 12 20 C11.67 20 11.34 20 11 20 C11 17.03 11 14.06 11 11 C10.34 11 9.68 11 9 11 C8.401875 10.071875 7.80375 9.14375 7.1875 8.1875 C4.97238707 4.95976402 3.34199424 3.85666346 0 2 C0 1.34 0 0.68 0 0 Z " fill="#DBD6E4" transform="translate(53,29)"/>
<path d="M0 0 C0 0.66 0 1.32 0 2 C-0.59167969 2.01417969 -1.18335938 2.02835938 -1.79296875 2.04296875 C-6.22337446 2.31038312 -8.3918845 2.48442382 -11.875 5.4375 C-12.57625 6.283125 -13.2775 7.12875 -14 8 C-14.99 8.66 -15.98 9.32 -17 10 C-16.71956235 6.72822744 -15.96190858 4.94286287 -14.125 2.1875 C-9.55846049 -1.00907766 -5.40767009 -0.42617365 0 0 Z " fill="#F8EDF3" transform="translate(53,29)"/>
<path d="M0 0 C1.32 1.32 2.64 2.64 4 4 C0.98509443 5.00496852 -1.04181692 5.10335303 -4.1875 5.0625 C-5.53908203 5.04896484 -5.53908203 5.04896484 -6.91796875 5.03515625 C-7.60503906 5.02355469 -8.29210937 5.01195312 -9 5 C-9 4.01 -9 3.02 -9 2 C-6.03 2 -3.06 2 0 2 C0 1.34 0 0.68 0 0 Z " fill="#F7B4D3" transform="translate(36,52)"/>
<path d="M0 0 C0.721875 0.763125 1.44375 1.52625 2.1875 2.3125 C6.95634752 6.86939874 10.40958514 8.3538809 17 9 C17 9.33 17 9.66 17 10 C7.566915 10.90638183 7.566915 10.90638183 3.93359375 8.8046875 C2.3125 7.25 2.3125 7.25 0 4 C0 2.68 0 1.36 0 0 Z " fill="#FAF4F7" transform="translate(36,48)"/>
<path d="M0 0 C3.21043882 1.38188453 5.04936365 2.92421903 7.25 5.625 C8.03117187 6.57246094 8.03117187 6.57246094 8.828125 7.5390625 C9.40820312 8.26222656 9.40820312 8.26222656 10 9 C6.39755548 8.69121904 5.00654002 8.00552268 2.1875 5.625 C0 3 0 3 0 0 Z " fill="#0993D4" transform="translate(62,59)"/>
<path d="M0 0 C1.32 0 2.64 0 4 0 C4 2.97 4 5.94 4 9 C2.68 8.34 1.36 7.68 0 7 C0 4.69 0 2.38 0 0 Z " fill="#2AA2D4" transform="translate(40,44)"/>
<path d="M0 0 C-0.66 1.32 -1.32 2.64 -2 4 C-5.63 4 -9.26 4 -13 4 C-11 1 -11 1 -8.90625 0.48828125 C-8.1121875 0.43027344 -7.318125 0.37226562 -6.5 0.3125 C-5.7059375 0.24675781 -4.911875 0.18101563 -4.09375 0.11328125 C-2.73063798 0.03953079 -1.36510568 0 0 0 Z " fill="#E6DEE7" transform="translate(57,55)"/>
<path d="M0 0 C1.98 0 3.96 0 6 0 C4.7260411 2.03833424 3.38938077 4.03852126 2 6 C1.34 6 0.68 6 0 6 C0 4.02 0 2.04 0 0 Z " fill="#5CA4BA" transform="translate(55,47)"/>
</svg>
